<svg id="eENPeOCtnx71" xmlns="http://www.w3.org/2000/svg" xmlns:xlink="http://www.w3.org/1999/xlink" viewBox="0 0 1000 1000" shape-rendering="geometricPrecision" text-rendering="geometricPrecision"><path d="M-80.94473,272.05005c16.32431-27.2072,104.60718-102.6939,137.67074-94.42801c63.70539,15.92635,55.65974,110.39825,114.72562,131.49321c49.08104,17.52894,93.63983,6.48543,137.67074-19.4151c14.47959-8.5174,22.42794-17.47623,39.71271-21.18011c49.33497-10.57178,112.9856,65.17916,151.79082,85.60296c90.31773,47.53565,206.32224-76.41024,250.63135,47.65526c5.85315,16.38882,12.66154,37.01905,7.94254,54.71529-4.06806,15.25522-13.93302,27.23442-22.94512,39.71271-37.27611,51.61307-91.51614,51.62158-150.02581,58.24531-49.15541,5.56476-96.99447,8.60695-146.49579,7.06004-104.77103-3.2741-386.83854-22.36408-465.96251-101.48805-39.40961-39.40961-44.25534-135.67377-54.71529-187.97351" transform="matrix(-1.301411 0.223122-.16898-.985619 997.812396 820.554791)" fill="#0b88cf" stroke-width="3"/><path d="M-80.94473,272.05005c16.32431-27.2072,85.604127-98.114439,118.667687-89.848549c63.70539,15.92635,71.151336,131.138945,133.728673,126.913749c55.622365-3.755599,93.63983,6.48543,137.67074-19.4151c14.47959-8.5174,31.716347-4.733735,49.001117-8.437615c49.33497-10.57178,121.603786,23.456618,150.139378,56.753717c67.650894,78.93926,198.685275-60.303492,242.994385,63.762008c5.85315,16.38882,12.66154,37.01905,7.94254,54.71529-4.06806,15.25522-13.93302,27.23442-22.94512,39.71271-37.27611,51.61307-91.51614,51.62158-150.02581,58.24531-49.15541,5.56476-96.99447,8.60695-146.49579,7.06004-104.77103-3.2741-386.83854-22.36408-465.96251-101.48805-39.40961-39.40961-44.25534-135.67377-54.71529-187.97351" transform="matrix(-1.301411 0.223122-.16898-.985619 1011.819677 773.869366)" fill="#0bcf13" stroke-width="3"/><path d="M-80.94473,272.05005c16.32431-27.2072,104.60718-102.6939,137.67074-94.42801c63.70539,15.92635,55.65974,110.39825,114.72562,131.49321c49.08104,17.52894,93.63983,6.48543,137.67074-19.4151c14.47959-8.5174,22.42794-17.47623,39.71271-21.18011c49.33497-10.57178,112.9856,65.17916,151.79082,85.60296c90.31773,47.53565,206.32224-76.41024,250.63135,47.65526c5.85315,16.38882,12.66154,37.01905,7.94254,54.71529-4.06806,15.25522-13.93302,27.23442-22.94512,39.71271-37.27611,51.61307-91.51614,51.62158-150.02581,58.24531-49.15541,5.56476-96.99447,8.60695-146.49579,7.06004-104.77103-3.2741-386.83854-22.36408-465.96251-101.48805-39.40961-39.40961-44.25534-135.67377-54.71529-187.97351" transform="matrix(-1.301411 0.223122-.16898-.985619 1011.819677 712.680118)" fill="#ff0c0c" stroke-width="3"/><path d="M-80.94473,272.05005c16.32431-27.2072,104.60718-102.6939,137.67074-94.42801c63.70539,15.92635,55.65974,110.39825,114.72562,131.49321c49.08104,17.52894,93.63983,6.48543,137.67074-19.4151c14.47959-8.5174,22.42794-17.47623,39.71271-21.18011c49.33497-10.57178,112.9856,65.17916,151.79082,85.60296c90.31773,47.53565,206.32224-76.41024,250.63135,47.65526c5.85315,16.38882,12.66154,37.01905,7.94254,54.71529-4.06806,15.25522-13.93302,27.23442-22.94512,39.71271-37.27611,51.61307-91.51614,51.62158-150.02581,58.24531-49.15541,5.56476-96.99447,8.60695-146.49579,7.06004-104.77103-3.2741-386.83854-22.36408-465.96251-101.48805-39.40961-39.40961-44.25534-135.67377-54.71529-187.97351" transform="matrix(1.320399 0 0 1 51.174244-160.324865)" fill="#ff0c0c" stroke-width="3"/><path d="M-80.94473,272.05005c16.32431-27.2072,85.604127-98.114439,118.667687-89.848549c63.70539,15.92635,71.151336,131.138945,133.728673,126.913749c55.622365-3.755599,93.63983,6.48543,137.67074-19.4151c14.47959-8.5174,31.716347-4.733735,49.001117-8.437615c49.33497-10.57178,121.603786,23.456618,150.139378,56.753717c67.650894,78.93926,198.685275-60.303492,242.994385,63.762008c5.85315,16.38882,12.66154,37.01905,7.94254,54.71529-4.06806,15.25522-13.93302,27.23442-22.94512,39.71271-37.27611,51.61307-91.51614,51.62158-150.02581,58.24531-49.15541,5.56476-104.655852-126.72189-146.49579,7.06004-80.500951-154.727625-386.83854-22.36408-465.96251-101.48805-39.40961-39.40961-44.25534-135.67377-54.71529-187.97351" transform="matrix(1.320399 0 0 1 51.174244-99.135617)" fill="#0bcf13" stroke-width="3"/><path d="M-80.94473,272.05005c16.32431-27.2072,104.60718-102.6939,137.67074-94.42801c63.70539,15.92635,55.65974,110.39825,114.72562,131.49321c49.08104,17.52894,93.63983,6.48543,137.67074-19.4151c14.47959-8.5174,22.42794-17.47623,39.71271-21.18011c49.33497-10.57178,112.9856,65.17916,151.79082,85.60296c90.31773,47.53565,206.32224-76.41024,250.63135,47.65526c5.85315,16.38882,12.66154,37.01905,7.94254,54.71529-4.06806,15.25522-50.652145,21.749017-59.664245,34.227307-37.27611,51.613071-73.456556,10.421558-131.966226,17.045288-49.15541,5.56476-26.464899-94.745694-117.227879,1.199144-54.810605-154.425411-372.649393-6.198443-476.57088-48.941729-51.544008-21.200238-44.25534-135.67377-54.71529-187.97351" transform="matrix(1.320399 0 0 1 37.166963-53.649337)" fill="#0b88cf" stroke-width="3"/></svg>